<svg width="24" height="24" viewBox="0 0 24 24" fill="none" xmlns="http://www.w3.org/2000/svg">
<path d="M14.7413 1.19989C14.717 1.19899 9.28458 1.19899 9.26028 1.19989C6.79788 1.22149 4.80078 3.23209 4.80078 5.69899V18.299C4.80078 20.7803 6.81948 22.799 9.30078 22.799H14.7008C17.1821 22.799 19.2008 20.7803 19.2008 18.299V5.69989C19.2008 3.23209 17.2037 1.22239 14.7413 1.19989ZM17.4008 18.299C17.4008 19.7876 16.1894 20.999 14.7008 20.999H9.30078C7.81218 20.999 6.60078 19.7876 6.60078 18.299V5.69989C6.60078 4.39219 7.53498 3.29959 8.77068 3.05209L9.39528 4.30219C9.54738 4.60729 9.85968 4.79989 10.2008 4.79989H13.8008C14.1419 4.79989 14.4533 4.60729 14.6063 4.30219L15.2309 3.05209C16.4666 3.29869 17.4008 4.39219 17.4008 5.69989V18.299ZM12.9008 19.199H11.1008C10.604 19.199 10.2008 18.7958 10.2008 18.299C10.2008 17.8022 10.604 17.399 11.1008 17.399H12.9008C13.3976 17.399 13.8008 17.8022 13.8008 18.299C13.8008 18.7958 13.3976 19.199 12.9008 19.199Z" fill="currentColor"/>
</svg>
